<svg width="138" height="138" viewBox="0 0 138 138" fill="none" xmlns="http://www.w3.org/2000/svg">
<g clip-path="url(#clip0_799_154)">
<path d="M69 0C50.7001 0 33.1496 7.26962 20.2096 20.2096C7.26962 33.1496 0 50.7001 0 69C0 87.2999 7.26962 104.85 20.2096 117.79C33.1496 130.73 50.7001 138 69 138C87.2999 138 104.85 130.73 117.79 117.79C130.73 104.85 138 87.2999 138 69C138 50.7001 130.73 33.1496 117.79 20.2096C104.85 7.26962 87.2999 0 69 0ZM99.1875 64.6875C100.331 64.6875 101.428 65.1419 102.237 65.9506C103.046 66.7594 103.5 67.8563 103.5 69C103.5 70.1437 103.046 71.2407 102.237 72.0494C101.428 72.8582 100.331 73.3125 99.1875 73.3125H49.2229L67.7408 91.8217C68.1417 92.2227 68.4598 92.6987 68.6768 93.2226C68.8938 93.7465 69.0054 94.308 69.0054 94.875C69.0054 95.442 68.8938 96.0035 68.6768 96.5274C68.4598 97.0513 68.1417 97.5273 67.7408 97.9283C67.3398 98.3292 66.8638 98.6473 66.3399 98.8643C65.816 99.0813 65.2545 99.1929 64.6875 99.1929C64.1205 99.1929 63.559 99.0813 63.0351 98.8643C62.5112 98.6473 62.0352 98.3292 61.6343 97.9283L35.7593 72.0533C35.3576 71.6527 35.039 71.1768 34.8216 70.6528C34.6042 70.1289 34.4923 69.5672 34.4923 69C34.4923 68.4328 34.6042 67.8711 34.8216 67.3472C35.039 66.8232 35.3576 66.3473 35.7593 65.9467L61.6343 40.0718C62.444 39.262 63.5423 38.807 64.6875 38.807C65.8327 38.807 66.931 39.262 67.7408 40.0718C68.5505 40.8815 69.0054 41.9798 69.0054 43.125C69.0054 44.2702 68.5505 45.3685 67.7408 46.1782L49.2229 64.6875H99.1875Z" fill="#1A5276"/>
</g>
<defs>
<clipPath id="clip0_799_154">
<rect width="138" height="138" fill="white"/>
</clipPath>
</defs>
</svg>
