<svg width="67" height="61" viewBox="0 0 67 61" fill="none" xmlns="http://www.w3.org/2000/svg">
<path d="M16.75 20.3333V17.7917C16.75 13.7471 18.5147 9.86821 21.656 7.00828C24.7972 4.14835 29.0576 2.54166 33.5 2.54166C37.9424 2.54166 42.2028 4.14835 45.344 7.00828C48.4853 9.86821 50.25 13.7471 50.25 17.7917V20.3333H55.8333C56.5737 20.3333 57.2838 20.6011 57.8073 21.0778C58.3309 21.5544 58.625 22.2009 58.625 22.875V53.375C58.625 54.0491 58.3309 54.6956 57.8073 55.1722C57.2838 55.6489 56.5737 55.9167 55.8333 55.9167H11.1667C10.4263 55.9167 9.7162 55.6489 9.19266 55.1722C8.66912 54.6956 8.375 54.0491 8.375 53.375V22.875C8.375 22.2009 8.66912 21.5544 9.19266 21.0778C9.7162 20.6011 10.4263 20.3333 11.1667 20.3333H16.75ZM53.0417 25.4167H13.9583V50.8333H53.0417V25.4167ZM30.7083 39.9855C29.644 39.426 28.8122 38.5623 28.3419 37.5285C27.8716 36.4947 27.7891 35.3485 28.1072 34.2676C28.4253 33.1868 29.1262 32.2317 30.1012 31.5505C31.0763 30.8693 32.271 30.5 33.5 30.5C34.729 30.5 35.9237 30.8693 36.8988 31.5505C37.8738 32.2317 38.5747 33.1868 38.8928 34.2676C39.2109 35.3485 39.1284 36.4947 38.6581 37.5285C38.1878 38.5623 37.356 39.426 36.2917 39.9855V45.75H30.7083V39.9855ZM22.3333 20.3333H44.6667V17.7917C44.6667 15.0953 43.4902 12.5094 41.396 10.6027C39.3019 8.69612 36.4616 7.62499 33.5 7.62499C30.5384 7.62499 27.6981 8.69612 25.604 10.6027C23.5098 12.5094 22.3333 15.0953 22.3333 17.7917V20.3333Z" fill="white"/>
</svg>
