<svg width="1920" height="5284" viewBox="0 0 1920 5284" fill="none" xmlns="http://www.w3.org/2000/svg">
<g clip-path="url(#clip0_1538_27)">
<rect width="1920" height="5284" fill="white"/>
<path d="M159.032 505.048V510.64H165.128V512.44H159.032V518.2H165.848V520H156.848V503.248H165.848V505.048H159.032ZM176.017 520L172.897 515.104L169.897 520H167.617L171.865 513.472L167.617 506.848H170.089L173.209 511.72L176.185 506.848H178.465L174.241 513.352L178.489 520H176.017ZM182.821 509.272C183.253 508.52 183.893 507.896 184.741 507.4C185.605 506.888 186.605 506.632 187.741 506.632C188.909 506.632 189.965 506.912 190.909 507.472C191.869 508.032 192.621 508.824 193.165 509.848C193.709 510.856 193.981 512.032 193.981 513.376C193.981 514.704 193.709 515.888 193.165 516.928C192.621 517.968 191.869 518.776 190.909 519.352C189.965 519.928 188.909 520.216 187.741 520.216C186.621 520.216 185.629 519.968 184.765 519.472C183.917 518.96 183.269 518.328 182.821 517.576V526.24H180.637V506.848H182.821V509.272ZM191.749 513.376C191.749 512.384 191.549 511.52 191.149 510.784C190.749 510.048 190.205 509.488 189.517 509.104C188.845 508.72 188.101 508.528 187.285 508.528C186.485 508.528 185.741 508.728 185.053 509.128C184.381 509.512 183.837 510.08 183.421 510.832C183.021 511.568 182.821 512.424 182.821 513.4C182.821 514.392 183.021 515.264 183.421 516.016C183.837 516.752 184.381 517.32 185.053 517.72C185.741 518.104 186.485 518.296 187.285 518.296C188.101 518.296 188.845 518.104 189.517 517.72C190.205 517.32 190.749 516.752 191.149 516.016C191.549 515.264 191.749 514.384 191.749 513.376ZM199.04 502.24V520H196.856V502.24H199.04ZM208.498 520.216C207.266 520.216 206.146 519.936 205.138 519.376C204.146 518.816 203.362 518.024 202.786 517C202.226 515.96 201.946 514.76 201.946 513.4C201.946 512.056 202.234 510.872 202.81 509.848C203.402 508.808 204.202 508.016 205.21 507.472C206.218 506.912 207.346 506.632 208.594 506.632C209.842 506.632 210.97 506.912 211.978 507.472C212.986 508.016 213.778 508.8 214.354 509.824C214.946 510.848 215.242 512.04 215.242 513.4C215.242 514.76 214.938 515.96 214.33 517C213.738 518.024 212.93 518.816 211.906 519.376C210.882 519.936 209.746 520.216 208.498 520.216ZM208.498 518.296C209.282 518.296 210.018 518.112 210.706 517.744C211.394 517.376 211.946 516.824 212.362 516.088C212.794 515.352 213.01 514.456 213.01 513.4C213.01 512.344 212.802 511.448 212.386 510.712C211.97 509.976 211.426 509.432 210.754 509.08C210.082 508.712 209.354 508.528 208.57 508.528C207.77 508.528 207.034 508.712 206.362 509.08C205.706 509.432 205.178 509.976 204.778 510.712C204.378 511.448 204.178 512.344 204.178 513.4C204.178 514.472 204.37 515.376 204.754 516.112C205.154 516.848 205.682 517.4 206.338 517.768C206.994 518.12 207.714 518.296 208.498 518.296ZM220.298 508.984C220.682 508.232 221.226 507.648 221.93 507.232C222.65 506.816 223.522 506.608 224.546 506.608V508.864H223.97C221.522 508.864 220.298 510.192 220.298 512.848V520H218.114V506.848H220.298V508.984ZM239.067 512.92C239.067 513.336 239.043 513.776 238.995 514.24H228.483C228.563 515.536 229.003 516.552 229.803 517.288C230.619 518.008 231.603 518.368 232.755 518.368C233.699 518.368 234.483 518.152 235.107 517.72C235.747 517.272 236.195 516.68 236.451 515.944H238.803C238.451 517.208 237.747 518.24 236.691 519.04C235.635 519.824 234.323 520.216 232.755 520.216C231.507 520.216 230.387 519.936 229.395 519.376C228.419 518.816 227.651 518.024 227.091 517C226.531 515.96 226.251 514.76 226.251 513.4C226.251 512.04 226.523 510.848 227.067 509.824C227.611 508.8 228.371 508.016 229.347 507.472C230.339 506.912 231.475 506.632 232.755 506.632C234.003 506.632 235.107 506.904 236.067 507.448C237.027 507.992 237.763 508.744 238.275 509.704C238.803 510.648 239.067 511.72 239.067 512.92ZM236.811 512.464C236.811 511.632 236.627 510.92 236.259 510.328C235.891 509.72 235.387 509.264 234.747 508.96C234.123 508.64 233.427 508.48 232.659 508.48C231.555 508.48 230.611 508.832 229.827 509.536C229.059 510.24 228.619 511.216 228.507 512.464H236.811ZM247.532 513.376C247.532 512.032 247.804 510.856 248.348 509.848C248.892 508.824 249.636 508.032 250.58 507.472C251.54 506.912 252.604 506.632 253.772 506.632C254.924 506.632 255.924 506.88 256.772 507.376C257.62 507.872 258.252 508.496 258.668 509.248V506.848H260.876V520H258.668V517.552C258.236 518.32 257.588 518.96 256.724 519.472C255.876 519.968 254.884 520.216 253.748 520.216C252.58 520.216 251.524 519.928 250.58 519.352C249.636 518.776 248.892 517.968 248.348 516.928C247.804 515.888 247.532 514.704 247.532 513.376ZM258.668 513.4C258.668 512.408 258.468 511.544 258.068 510.808C257.668 510.072 257.124 509.512 256.436 509.128C255.764 508.728 255.02 508.528 254.204 508.528C253.388 508.528 252.644 508.72 251.972 509.104C251.3 509.488 250.764 510.048 250.364 510.784C249.964 511.52 249.764 512.384 249.764 513.376C249.764 514.384 249.964 515.264 250.364 516.016C250.764 516.752 251.3 517.32 251.972 517.72C252.644 518.104 253.388 518.296 254.204 518.296C255.02 518.296 255.764 518.104 256.436 517.72C257.124 517.32 257.668 516.752 258.068 516.016C258.468 515.264 258.668 514.392 258.668 513.4ZM269.223 520.216C268.215 520.216 267.311 520.048 266.511 519.712C265.711 519.36 265.079 518.88 264.615 518.272C264.151 517.648 263.895 516.936 263.847 516.136H266.103C266.167 516.792 266.471 517.328 267.015 517.744C267.575 518.16 268.303 518.368 269.199 518.368C270.031 518.368 270.687 518.184 271.167 517.816C271.647 517.448 271.887 516.984 271.887 516.424C271.887 515.848 271.631 515.424 271.119 515.152C270.607 514.864 269.815 514.584 268.743 514.312C267.767 514.056 266.967 513.8 266.343 513.544C265.735 513.272 265.207 512.88 264.759 512.368C264.327 511.84 264.111 511.152 264.111 510.304C264.111 509.632 264.311 509.016 264.711 508.456C265.111 507.896 265.679 507.456 266.415 507.136C267.151 506.8 267.991 506.632 268.935 506.632C270.391 506.632 271.567 507 272.463 507.736C273.359 508.472 273.839 509.48 273.903 510.76H271.719C271.671 510.072 271.391 509.52 270.879 509.104C270.383 508.688 269.711 508.48 268.863 508.48C268.079 508.48 267.455 508.648 266.991 508.984C266.527 509.32 266.295 509.76 266.295 510.304C266.295 510.736 266.431 511.096 266.703 511.384C266.991 511.656 267.343 511.88 267.759 512.056C268.191 512.216 268.783 512.4 269.535 512.608C270.479 512.864 271.247 513.12 271.839 513.376C272.431 513.616 272.935 513.984 273.351 514.48C273.783 514.976 274.007 515.624 274.023 516.424C274.023 517.144 273.823 517.792 273.423 518.368C273.023 518.944 272.455 519.4 271.719 519.736C270.999 520.056 270.167 520.216 269.223 520.216ZM289.24 520.216C288.008 520.216 286.888 519.936 285.88 519.376C284.888 518.816 284.104 518.024 283.528 517C282.968 515.96 282.688 514.76 282.688 513.4C282.688 512.056 282.976 510.872 283.552 509.848C284.144 508.808 284.944 508.016 285.952 507.472C286.96 506.912 288.088 506.632 289.336 506.632C290.584 506.632 291.712 506.912 292.72 507.472C293.728 508.016 294.52 508.8 295.096 509.824C295.688 510.848 295.984 512.04 295.984 513.4C295.984 514.76 295.68 515.96 295.072 517C294.48 518.024 293.672 518.816 292.648 519.376C291.624 519.936 290.488 520.216 289.24 520.216ZM289.24 518.296C290.024 518.296 290.76 518.112 291.448 517.744C292.136 517.376 292.688 516.824 293.104 516.088C293.536 515.352 293.752 514.456 293.752 513.4C293.752 512.344 293.544 511.448 293.128 510.712C292.712 509.976 292.168 509.432 291.496 509.08C290.824 508.712 290.096 508.528 289.312 508.528C288.512 508.528 287.776 508.712 287.104 509.08C286.448 509.432 285.92 509.976 285.52 510.712C285.12 511.448 284.92 512.344 284.92 513.4C284.92 514.472 285.112 515.376 285.496 516.112C285.896 516.848 286.424 517.4 287.08 517.768C287.736 518.12 288.456 518.296 289.24 518.296ZM301.04 509.272C301.472 508.52 302.112 507.896 302.96 507.4C303.824 506.888 304.824 506.632 305.96 506.632C307.128 506.632 308.184 506.912 309.128 507.472C310.088 508.032 310.84 508.824 311.384 509.848C311.928 510.856 312.2 512.032 312.2 513.376C312.2 514.704 311.928 515.888 311.384 516.928C310.84 517.968 310.088 518.776 309.128 519.352C308.184 519.928 307.128 520.216 305.96 520.216C304.84 520.216 303.848 519.968 302.984 519.472C302.136 518.96 301.488 518.328 301.04 517.576V526.24H298.856V506.848H301.04V509.272ZM309.968 513.376C309.968 512.384 309.768 511.52 309.368 510.784C308.968 510.048 308.424 509.488 307.736 509.104C307.064 508.72 306.32 508.528 305.504 508.528C304.704 508.528 303.96 508.728 303.272 509.128C302.6 509.512 302.056 510.08 301.64 510.832C301.24 511.568 301.04 512.424 301.04 513.4C301.04 514.392 301.24 515.264 301.64 516.016C302.056 516.752 302.6 517.32 303.272 517.72C303.96 518.104 304.704 518.296 305.504 518.296C306.32 518.296 307.064 518.104 307.736 517.72C308.424 517.32 308.968 516.752 309.368 516.016C309.768 515.264 309.968 514.384 309.968 513.376ZM320.667 518.368C321.627 518.368 322.427 518.144 323.067 517.696C323.707 517.248 324.147 516.608 324.387 515.776H326.739C326.419 517.024 325.787 518.048 324.843 518.848C323.915 519.632 322.747 520.08 321.339 520.192V521.392C322.283 521.376 323.035 521.576 323.595 521.992C324.155 522.408 324.435 523 324.435 523.768C324.435 524.52 324.163 525.12 323.619 525.568C323.075 526.016 322.371 526.24 321.507 526.24H318.747V524.824H321.075C321.603 524.824 321.987 524.744 322.227 524.584C322.483 524.424 322.611 524.152 322.611 523.768C322.611 523.4 322.483 523.136 322.227 522.976C321.987 522.816 321.603 522.736 321.075 522.736H319.875V520.168C318.771 520.056 317.795 519.712 316.947 519.136C316.099 518.544 315.435 517.76 314.955 516.784C314.491 515.792 314.259 514.664 314.259 513.4C314.259 512.04 314.531 510.856 315.075 509.848C315.619 508.824 316.371 508.032 317.331 507.472C318.307 506.912 319.419 506.632 320.667 506.632C322.283 506.632 323.611 507.024 324.651 507.808C325.707 508.592 326.403 509.68 326.739 511.072H324.387C324.163 510.272 323.723 509.64 323.067 509.176C322.427 508.712 321.627 508.48 320.667 508.48C319.419 508.48 318.411 508.912 317.643 509.776C316.875 510.624 316.491 511.832 316.491 513.4C316.491 514.984 316.875 516.208 317.643 517.072C318.411 517.936 319.419 518.368 320.667 518.368ZM335.389 520.216C334.157 520.216 333.037 519.936 332.029 519.376C331.037 518.816 330.253 518.024 329.677 517C329.117 515.96 328.837 514.76 328.837 513.4C328.837 512.056 329.125 510.872 329.701 509.848C330.293 508.808 331.093 508.016 332.101 507.472C333.109 506.912 334.237 506.632 335.485 506.632C336.733 506.632 337.861 506.912 338.869 507.472C339.877 508.016 340.669 508.8 341.245 509.824C341.837 510.848 342.133 512.04 342.133 513.4C342.133 514.76 341.829 515.96 341.221 517C340.629 518.024 339.821 518.816 338.797 519.376C337.773 519.936 336.637 520.216 335.389 520.216ZM335.389 518.296C336.173 518.296 336.909 518.112 337.597 517.744C338.285 517.376 338.837 516.824 339.253 516.088C339.685 515.352 339.901 514.456 339.901 513.4C339.901 512.344 339.693 511.448 339.277 510.712C338.861 509.976 338.317 509.432 337.645 509.08C336.973 508.712 336.245 508.528 335.461 508.528C334.661 508.528 333.925 508.712 333.253 509.08C332.597 509.432 332.069 509.976 331.669 510.712C331.269 511.448 331.069 512.344 331.069 513.4C331.069 514.472 331.261 515.376 331.645 516.112C332.045 516.848 332.573 517.4 333.229 517.768C333.885 518.12 334.605 518.296 335.389 518.296ZM331.981 505.264C332.093 504.448 332.357 503.824 332.773 503.392C333.205 502.96 333.741 502.744 334.381 502.744C334.685 502.744 334.941 502.8 335.149 502.912C335.373 503.008 335.637 503.152 335.941 503.344C336.165 503.504 336.365 503.632 336.541 503.728C336.717 503.808 336.909 503.848 337.117 503.848C337.389 503.848 337.621 503.76 337.813 503.584C338.005 503.408 338.125 503.152 338.173 502.816H339.421C339.325 503.616 339.061 504.232 338.629 504.664C338.197 505.096 337.661 505.312 337.021 505.312C336.717 505.312 336.445 505.264 336.205 505.168C335.981 505.056 335.725 504.896 335.437 504.688C335.181 504.528 334.973 504.408 334.813 504.328C334.669 504.248 334.493 504.208 334.285 504.208C334.013 504.208 333.781 504.296 333.589 504.472C333.413 504.648 333.301 504.912 333.253 505.264H331.981ZM357.004 512.92C357.004 513.336 356.98 513.776 356.932 514.24H346.42C346.5 515.536 346.94 516.552 347.74 517.288C348.556 518.008 349.54 518.368 350.692 518.368C351.636 518.368 352.42 518.152 353.044 517.72C353.684 517.272 354.132 516.68 354.388 515.944H356.74C356.388 517.208 355.684 518.24 354.628 519.04C353.572 519.824 352.26 520.216 350.692 520.216C349.444 520.216 348.324 519.936 347.332 519.376C346.356 518.816 345.588 518.024 345.028 517C344.468 515.96 344.188 514.76 344.188 513.4C344.188 512.04 344.46 510.848 345.004 509.824C345.548 508.8 346.308 508.016 347.284 507.472C348.276 506.912 349.412 506.632 350.692 506.632C351.94 506.632 353.044 506.904 354.004 507.448C354.964 507.992 355.7 508.744 356.212 509.704C356.74 510.648 357.004 511.72 357.004 512.92ZM354.748 512.464C354.748 511.632 354.564 510.92 354.196 510.328C353.828 509.72 353.324 509.264 352.684 508.96C352.06 508.64 351.364 508.48 350.596 508.48C349.492 508.48 348.548 508.832 347.764 509.536C346.996 510.24 346.556 511.216 346.444 512.464H354.748ZM364.543 520.216C363.535 520.216 362.631 520.048 361.831 519.712C361.031 519.36 360.399 518.88 359.935 518.272C359.471 517.648 359.215 516.936 359.167 516.136H361.423C361.487 516.792 361.791 517.328 362.335 517.744C362.895 518.16 363.623 518.368 364.519 518.368C365.351 518.368 366.007 518.184 366.487 517.816C366.967 517.448 367.207 516.984 367.207 516.424C367.207 515.848 366.951 515.424 366.439 515.152C365.927 514.864 365.135 514.584 364.063 514.312C363.087 514.056 362.287 513.8 361.663 513.544C361.055 513.272 360.527 512.88 360.079 512.368C359.647 511.84 359.431 511.152 359.431 510.304C359.431 509.632 359.631 509.016 360.031 508.456C360.431 507.896 360.999 507.456 361.735 507.136C362.471 506.8 363.311 506.632 364.255 506.632C365.711 506.632 366.887 507 367.783 507.736C368.679 508.472 369.159 509.48 369.223 510.76H367.039C366.991 510.072 366.711 509.52 366.199 509.104C365.703 508.688 365.031 508.48 364.183 508.48C363.399 508.48 362.775 508.648 362.311 508.984C361.847 509.32 361.615 509.76 361.615 510.304C361.615 510.736 361.751 511.096 362.023 511.384C362.311 511.656 362.663 511.88 363.079 512.056C363.511 512.216 364.103 512.4 364.855 512.608C365.799 512.864 366.567 513.12 367.159 513.376C367.751 513.616 368.255 513.984 368.671 514.48C369.103 514.976 369.327 515.624 369.343 516.424C369.343 517.144 369.143 517.792 368.743 518.368C368.343 518.944 367.775 519.4 367.039 519.736C366.319 520.056 365.487 520.216 364.543 520.216Z" fill="white"/>
<path d="M308 3292.5C308 3498.23 150.18 3665 -44.5 3665C-239.18 3665 -397 3498.23 -397 3292.5C-397 3086.77 -239.18 2920 -44.5 2920C150.18 2920 308 3086.77 308 3292.5Z" fill="#FF6926"/>
<ellipse cx="-58.5" cy="1382.5" rx="352.5" ry="414.5" fill="#FF6926"/>
<ellipse cx="1885.04" cy="625.5" rx="199.884" ry="205.834" transform="rotate(-12.9913 1885.04 625.5)" fill="#1A5276"/>
<ellipse cx="1880" cy="2089" rx="199" ry="271" fill="#1A5276"/>
</g>
<defs>
<clipPath id="clip0_1538_27">
<rect width="1920" height="5284" fill="white"/>
</clipPath>
</defs>
</svg>
