<svg width="57" height="57" viewBox="0 0 57 57" fill="none" xmlns="http://www.w3.org/2000/svg">
<path d="M28.5 28.5C32.2793 28.5 35.9039 26.9987 38.5763 24.3263C41.2487 21.6539 42.75 18.0293 42.75 14.25C42.75 10.4707 41.2487 6.84612 38.5763 4.17373C35.9039 1.50134 32.2793 0 28.5 0C24.7207 0 21.0961 1.50134 18.4237 4.17373C15.7513 6.84612 14.25 10.4707 14.25 14.25C14.25 18.0293 15.7513 21.6539 18.4237 24.3263C21.0961 26.9987 24.7207 28.5 28.5 28.5ZM38 14.25C38 16.7696 36.9991 19.1859 35.2175 20.9675C33.4359 22.7491 31.0196 23.75 28.5 23.75C25.9804 23.75 23.5641 22.7491 21.7825 20.9675C20.0009 19.1859 19 16.7696 19 14.25C19 11.7304 20.0009 9.31408 21.7825 7.53249C23.5641 5.75089 25.9804 4.75 28.5 4.75C31.0196 4.75 33.4359 5.75089 35.2175 7.53249C36.9991 9.31408 38 11.7304 38 14.25ZM57 52.25C57 57 52.25 57 52.25 57H4.75C4.75 57 0 57 0 52.25C0 47.5 4.75 33.25 28.5 33.25C52.25 33.25 57 47.5 57 52.25ZM52.25 52.231C52.2453 51.0625 51.5185 47.5475 48.298 44.327C45.201 41.23 39.3727 38 28.5 38C17.6273 38 11.799 41.23 8.702 44.327C5.4815 47.5475 4.7595 51.0625 4.75 52.231H52.25Z" fill="white"/>
</svg>
